<svg width="30" height="29" viewBox="0 0 30 29" fill="none" xmlns="http://www.w3.org/2000/svg">
<path d="M21.6746 13.4638C21.5873 13.5584 21.4834 13.6335 21.3691 13.6847C21.2548 13.7359 21.1322 13.7623 21.0085 13.7623C20.8847 13.7623 20.7621 13.7359 20.6478 13.6847C20.5335 13.6335 20.4297 13.5584 20.3423 13.4638L16.3068 9.10949V21.5408C16.3068 21.8099 16.2077 22.068 16.0314 22.2584C15.855 22.4487 15.6158 22.5556 15.3663 22.5556C15.1169 22.5556 14.8777 22.4487 14.7013 22.2584C14.5249 22.068 14.4258 21.8099 14.4258 21.5408V9.10949L10.3888 13.4638C10.2121 13.6545 9.9725 13.7616 9.72263 13.7616C9.47277 13.7616 9.23314 13.6545 9.05646 13.4638C8.87978 13.2732 8.78052 13.0146 8.78052 12.745C8.78052 12.4754 8.87978 12.2168 9.05646 12.0262L14.6994 5.93739C14.7867 5.84278 14.8906 5.76772 15.0049 5.7165C15.1192 5.66528 15.2418 5.63892 15.3655 5.63892C15.4893 5.63892 15.6119 5.66528 15.7262 5.7165C15.8405 5.76772 15.9443 5.84278 16.0317 5.93739L21.6746 12.0262C21.7623 12.1205 21.8319 12.2325 21.8793 12.3558C21.9268 12.4792 21.9512 12.6114 21.9512 12.745C21.9512 12.8786 21.9268 13.0108 21.8793 13.1342C21.8319 13.2575 21.7623 13.3695 21.6746 13.4638Z" fill="#FCFCFC"/>
</svg>

