<svg width="16" height="11" viewBox="0 0 16 11" fill="none" xmlns="http://www.w3.org/2000/svg">
<path d="M15.4688 0H0.46875C0.34443 0 0.225201 0.0444474 0.137294 0.123564C0.049386 0.202681 0 0.309987 0 0.421875V9.98438C0 10.2454 0.115234 10.4958 0.320352 10.6804C0.52547 10.865 0.803669 10.9688 1.09375 10.9688H14.8438C15.1338 10.9688 15.412 10.865 15.6171 10.6804C15.8223 10.4958 15.9375 10.2454 15.9375 9.98438V0.421875C15.9375 0.309987 15.8881 0.202681 15.8002 0.123564C15.7123 0.0444474 15.5931 0 15.4688 0ZM7.96875 6.03703L1.67344 0.84375H14.2641L7.96875 6.03703ZM5.91172 5.48438L0.9375 9.58781V1.38094L5.91172 5.48438ZM6.60547 6.05672L7.65625 6.92016C7.74266 6.99131 7.85554 7.03076 7.97266 7.03076C8.08978 7.03076 8.20265 6.99131 8.28906 6.92016L9.33594 6.05672L14.2641 10.125H1.67422L6.60547 6.05672ZM10.0258 5.48438L15 1.38094V9.58781L10.0258 5.48438Z" fill="#FCFCFC"/>
</svg>
