<svg width="18" height="15" viewBox="0 0 18 15" fill="none" xmlns="http://www.w3.org/2000/svg">
<path d="M17.4039 0.947598C17.3285 0.889006 17.2368 0.850049 17.1386 0.834932C17.0405 0.819814 16.9396 0.82911 16.8469 0.861816L1.01405 6.4383C0.821472 6.50612 0.65854 6.62834 0.549722 6.7866C0.440905 6.94486 0.392075 7.13063 0.410567 7.316C0.429059 7.50137 0.513874 7.67633 0.652275 7.81462C0.790676 7.95291 0.975192 8.04705 1.17811 8.08291L5.40624 8.83033V13.0624C5.40632 13.2586 5.47155 13.4503 5.59356 13.6129C5.71556 13.7755 5.88876 13.9016 6.09095 13.975C6.29313 14.0484 6.51506 14.0657 6.72826 14.0247C6.94146 13.9838 7.1362 13.8864 7.28749 13.7452L9.36874 11.8024L12.6172 14.3653C12.8155 14.5233 13.0711 14.6105 13.3359 14.6107C13.4516 14.6105 13.5665 14.5941 13.6765 14.5622C13.857 14.5108 14.0193 14.4177 14.1474 14.2923C14.2754 14.1668 14.3647 14.0133 14.4062 13.8471L17.5797 1.43064C17.602 1.34335 17.5974 1.25224 17.5664 1.16712C17.5355 1.082 17.4793 1.0061 17.4039 0.947598ZM1.34764 7.25252C1.34465 7.24526 1.34465 7.23728 1.34764 7.23002C1.35117 7.22757 1.35513 7.22567 1.35936 7.22439L13.8367 2.82846L5.76639 8.03158L1.35936 7.25533L1.34764 7.25252ZM6.61249 13.1588C6.59095 13.1789 6.56326 13.1928 6.53292 13.1986C6.50259 13.2045 6.471 13.2022 6.44217 13.1918C6.41334 13.1815 6.38858 13.1637 6.37105 13.1406C6.35352 13.1176 6.34401 13.0904 6.34374 13.0624V9.41393L8.66327 11.2421L6.61249 13.1588ZM13.493 13.6566C13.4872 13.6804 13.4744 13.7023 13.456 13.7201C13.4376 13.7379 13.4142 13.751 13.3883 13.7578C13.3618 13.7662 13.3334 13.768 13.3059 13.763C13.2784 13.7581 13.2529 13.7466 13.232 13.7297L6.62811 8.51604L16.4219 2.19916L13.493 13.6566Z" fill="#FCFCFC"/>
</svg>
