<svg width="68" height="68" viewBox="0 0 68 68" fill="none" xmlns="http://www.w3.org/2000/svg">
<path d="M40.6362 3C36.8483 3.00219 33.113 3.88615 29.726 5.58184C26.3391 7.27753 23.3937 9.73838 21.1231 12.7694C18.8525 15.8005 17.3191 19.3185 16.6443 23.0448C15.9695 26.7711 16.172 30.6032 17.2355 34.2377L1.01881 50.4471C0.695457 50.7707 0.439052 51.1549 0.264241 51.5776C0.0894312 52.0003 -0.00035871 52.4533 1.07697e-06 52.9107V64.5179C1.07697e-06 65.4414 0.36697 66.3271 1.02018 66.9801C1.67339 67.6331 2.55933 68 3.4831 68H15.0934C16.0172 68 16.9032 67.6331 17.5564 66.9801C18.2096 66.3271 18.5765 65.4414 18.5765 64.5179V61.0357H22.0596C22.9834 61.0357 23.8694 60.6688 24.5226 60.0158C25.1758 59.3628 25.5427 58.4771 25.5427 57.5536V54.0714H29.0258C29.4834 54.0718 29.9365 53.982 30.3593 53.8073C30.7822 53.6325 31.1664 53.3762 31.4901 53.0529L33.7716 50.7692C37.1243 51.7499 40.6488 51.9989 44.1062 51.4993C47.5636 50.9997 50.8732 49.7632 53.811 47.8735C56.7488 45.9838 59.2461 43.4851 61.1337 40.5465C63.0214 37.6079 64.2554 34.2981 64.7522 30.8412C65.249 27.3843 64.9969 23.8611 64.0131 20.5101C63.0292 17.1591 61.3365 14.0586 59.0497 11.4185C56.7629 8.77842 53.9353 6.66045 50.7584 5.208C47.5815 3.75556 44.1295 3.00256 40.6362 3ZM40.6362 44.7857C38.4399 44.7904 36.2629 44.3767 34.2215 43.567C33.5812 43.2925 32.8733 43.2163 32.1893 43.3483C31.5052 43.4802 30.8765 43.8141 30.3843 44.3069L27.5745 47.1071H22.0596C21.1359 47.1071 20.2499 47.474 19.5967 48.127C18.9435 48.7801 18.5765 49.6658 18.5765 50.5893V54.0714H15.0934C14.1697 54.0714 13.2837 54.4383 12.6305 55.0913C11.9773 55.7444 11.6103 56.6301 11.6103 57.5536V61.0357H6.9662V54.3616L23.6996 37.6328C24.192 37.1409 24.5256 36.5129 24.6576 35.8296C24.7895 35.1464 24.7136 34.4393 24.4398 33.7996C23.0653 30.3385 22.837 26.5282 23.7884 22.9279C24.7398 19.3276 26.8208 16.1271 29.7258 13.7964C32.6308 11.4657 36.2067 10.1274 39.9285 9.97827C43.6504 9.82908 47.322 10.8768 50.4043 12.9675C53.4866 15.0583 55.8172 18.0819 57.0539 21.5945C58.2906 25.1071 58.3681 28.9235 57.2753 32.4834C56.1824 36.0433 53.9766 39.1591 50.9818 41.3734C47.987 43.5876 44.361 44.7836 40.6362 44.7857ZM51.0855 21.5714C51.0855 22.4897 50.8131 23.3873 50.3028 24.1509C49.7925 24.9144 49.0672 25.5095 48.2186 25.8609C47.37 26.2123 46.4362 26.3042 45.5353 26.1251C44.6344 25.9459 43.8069 25.5037 43.1574 24.8544C42.508 24.2051 42.0656 23.3778 41.8864 22.4772C41.7073 21.5766 41.7992 20.6431 42.1507 19.7947C42.5022 18.9463 43.0975 18.2212 43.8612 17.711C44.6249 17.2009 45.5228 16.9286 46.4413 16.9286C47.673 16.9286 48.8543 17.4177 49.7252 18.2884C50.5962 19.1591 51.0855 20.3401 51.0855 21.5714Z" fill="#BD0606"/>
</svg>
