<svg width="68" height="68" viewBox="0 0 68 68" fill="none" xmlns="http://www.w3.org/2000/svg">
<path d="M34 15.9375C31.6884 15.9375 29.4288 16.623 27.5068 17.9072C25.5848 19.1914 24.0868 21.0168 23.2022 23.1524C22.3176 25.288 22.0861 27.638 22.5371 29.9051C22.988 32.1723 24.1012 34.2548 25.7357 35.8893C27.3702 37.5238 29.4527 38.637 31.7199 39.0879C33.987 39.5389 36.337 39.3074 38.4726 38.4228C40.6082 37.5382 42.4336 36.0402 43.7178 34.1182C45.002 32.1962 45.6875 29.9366 45.6875 27.625C45.684 24.5264 44.4515 21.5556 42.2604 19.3646C40.0694 17.1735 37.0986 15.941 34 15.9375ZM34 32.9375C32.9493 32.9375 31.9222 32.6259 31.0485 32.0422C30.1749 31.4584 29.494 30.6287 29.0919 29.658C28.6898 28.6873 28.5846 27.6191 28.7896 26.5886C28.9946 25.5581 29.5005 24.6115 30.2435 23.8685C30.9865 23.1255 31.9331 22.6196 32.9636 22.4146C33.9941 22.2096 35.0623 22.3148 36.033 22.7169C37.0037 23.119 37.8334 23.7999 38.4172 24.6735C39.0009 25.5472 39.3125 26.5743 39.3125 27.625C39.3125 29.034 38.7528 30.3852 37.7565 31.3815C36.7602 32.3778 35.409 32.9375 34 32.9375ZM34 3.1875C27.5209 3.19453 21.3092 5.77145 16.7278 10.3528C12.1464 14.9342 9.56953 21.1459 9.5625 27.625C9.5625 48.1738 31.2481 63.5906 32.1725 64.2361C32.7082 64.6109 33.3462 64.812 34 64.812C34.6538 64.812 35.2918 64.6109 35.8275 64.2361C39.9348 61.2091 43.6926 57.7346 47.0316 53.8767C54.493 45.3077 58.4375 36.2233 58.4375 27.625C58.4305 21.1459 55.8535 14.9342 51.2722 10.3528C46.6908 5.77145 40.4791 3.19453 34 3.1875ZM42.3141 49.5948C39.7814 52.504 36.9995 55.1864 34 57.6114C31.0005 55.1864 28.2186 52.504 25.6859 49.5948C21.25 44.4577 15.9375 36.473 15.9375 27.625C15.9375 22.8345 17.8405 18.2403 21.2279 14.8529C24.6153 11.4655 29.2095 9.5625 34 9.5625C38.7905 9.5625 43.3847 11.4655 46.7721 14.8529C50.1595 18.2403 52.0625 22.8345 52.0625 27.625C52.0625 36.473 46.75 44.4577 42.3141 49.5948Z" fill="#BD0606"/>
</svg>
