<svg width="68" height="68" viewBox="0 0 68 68" fill="none" xmlns="http://www.w3.org/2000/svg">
<path d="M55.25 9.5625H12.75C11.341 9.5625 9.98978 10.1222 8.9935 11.1185C7.99721 12.1148 7.4375 13.466 7.4375 14.875V30.4938C7.4375 55.0269 28.1828 63.1656 32.3425 64.5416C33.418 64.9028 34.582 64.9028 35.6575 64.5416C39.8172 63.1603 60.5625 55.0269 60.5625 30.4938V14.875C60.5625 13.466 60.0028 12.1148 59.0065 11.1185C58.0102 10.1222 56.659 9.5625 55.25 9.5625ZM54.1875 30.4938C54.1875 50.0331 38.1092 56.9314 34 58.3844C29.8908 56.9447 13.8125 50.0464 13.8125 30.507V15.9375H54.1875V30.4938ZM21.1198 38.3802C20.8233 38.0837 20.5881 37.7317 20.4277 37.3443C20.2672 36.9569 20.1846 36.5417 20.1846 36.1223C20.1846 35.703 20.2672 35.2878 20.4277 34.9004C20.5881 34.513 20.8233 34.161 21.1198 33.8645C21.4163 33.568 21.7683 33.3328 22.1557 33.1724C22.5431 33.0119 22.9583 32.9293 23.3777 32.9293C23.797 32.9293 24.2122 33.0119 24.5996 33.1724C24.987 33.3328 25.339 33.568 25.6355 33.8645L29.75 37.9844L42.3698 25.3645C42.9687 24.7657 43.7808 24.4293 44.6277 24.4293C45.4745 24.4293 46.2867 24.7657 46.8855 25.3645C47.4843 25.9633 47.8207 26.7755 47.8207 27.6223C47.8207 28.4692 47.4843 29.2813 46.8855 29.8802L32.0105 44.7552C31.7143 45.0523 31.3625 45.2881 30.975 45.449C30.5876 45.6099 30.1722 45.6927 29.7527 45.6927C29.3331 45.6927 28.9177 45.6099 28.5303 45.449C28.1429 45.2881 27.791 45.0523 27.4948 44.7552L21.1198 38.3802Z" fill="#BD0606"/>
</svg>
