<svg width="20" height="18" viewBox="0 0 20 18" fill="none" xmlns="http://www.w3.org/2000/svg">
<path d="M12.0469 2.70346C12.0628 2.64989 12.0902 2.59966 12.1277 2.55564C12.1651 2.51162 12.2118 2.47468 12.2652 2.44692C12.3185 2.41917 12.3774 2.40115 12.4385 2.39389C12.4995 2.38664 12.5616 2.39029 12.6211 2.40463C13.7533 2.67043 14.7863 3.20307 15.6136 3.9477C16.441 4.69232 17.0328 5.622 17.3281 6.64096C17.3441 6.69451 17.3481 6.75037 17.3401 6.80534C17.332 6.86031 17.312 6.9133 17.2811 6.9613C17.2503 7.0093 17.2093 7.05135 17.1603 7.08506C17.1114 7.11877 17.0556 7.14347 16.9961 7.15776C16.9566 7.16722 16.9159 7.17195 16.875 7.17182C16.7717 7.17188 16.6713 7.14123 16.5894 7.08465C16.5074 7.02807 16.4486 6.94872 16.4219 6.85893C16.1683 5.98367 15.66 5.18509 14.9494 4.5455C14.2387 3.90592 13.3514 3.44845 12.3789 3.22026C12.3194 3.20597 12.2636 3.18127 12.2147 3.14756C12.1658 3.11385 12.1247 3.0718 12.0939 3.0238C12.063 2.9758 12.043 2.92281 12.035 2.86784C12.0269 2.81287 12.0309 2.75702 12.0469 2.70346ZM11.7539 5.47026C12.8906 5.74307 13.6188 6.39838 13.9219 7.42143C13.9486 7.51122 14.0074 7.59057 14.0894 7.64715C14.1713 7.70373 14.2717 7.73438 14.375 7.73432C14.4159 7.73445 14.4566 7.72972 14.4961 7.72026C14.5556 7.70597 14.6114 7.68127 14.6603 7.64756C14.7093 7.61385 14.7503 7.5718 14.7811 7.5238C14.812 7.4758 14.832 7.42281 14.8401 7.36784C14.8481 7.31287 14.8441 7.25701 14.8281 7.20346C14.4375 5.88791 13.4578 5.00619 11.9961 4.65463C11.9366 4.64032 11.8745 4.6367 11.8135 4.64397C11.7524 4.65124 11.6935 4.66927 11.6402 4.69701C11.5325 4.75305 11.454 4.8453 11.4219 4.95346C11.3898 5.06162 11.4067 5.17683 11.469 5.27375C11.5312 5.37067 11.6337 5.44135 11.7539 5.47026ZM17.9602 12.2906C17.8263 13.2097 17.3251 14.0535 16.5503 14.6643C15.7755 15.2751 14.78 15.611 13.75 15.6093C7.63282 15.6093 2.65626 11.1304 2.65626 5.62494C2.65428 4.69826 3.02721 3.80261 3.70538 3.10531C4.38354 2.40801 5.32056 1.95674 6.34141 1.8358C6.57641 1.8101 6.81433 1.85371 7.01944 1.96008C7.22456 2.06646 7.38578 2.22985 7.47891 2.42573L9.12735 5.73744C9.20014 5.88737 9.23025 6.05126 9.21497 6.21429C9.1997 6.37732 9.13951 6.53436 9.03985 6.67119C9.0298 6.68512 9.01884 6.69851 9.00704 6.71127L7.36095 8.4733C7.35095 8.49157 7.34575 8.51166 7.34575 8.53201C7.34575 8.55237 7.35095 8.57246 7.36095 8.59073C7.95938 9.69323 9.24376 10.8407 10.4859 11.3786C10.5067 11.3871 10.5293 11.3912 10.5521 11.3904C10.5749 11.3897 10.5972 11.3842 10.6172 11.3744L12.5461 9.89783C12.5599 9.88705 12.5745 9.87718 12.5899 9.8683C12.7412 9.77748 12.9154 9.72207 13.0965 9.70709C13.2777 9.69211 13.4601 9.71804 13.6274 9.78252L17.318 11.271C17.5327 11.3567 17.7111 11.5023 17.8268 11.6863C17.9424 11.8703 17.9892 12.0829 17.9602 12.2927V12.2906ZM17.0313 12.1865C17.0339 12.1571 17.0262 12.1277 17.0092 12.1025C16.9922 12.0772 16.9669 12.0574 16.9367 12.0459L13.2453 10.5574C13.2252 10.5504 13.2035 10.5474 13.182 10.5486C13.1604 10.5498 13.1394 10.5552 13.1203 10.5644L11.1922 12.041C11.1781 12.0515 11.1633 12.0614 11.1484 12.0705C10.9912 12.1649 10.8094 12.221 10.6209 12.2333C10.4323 12.2456 10.2434 12.2138 10.0727 12.1408C8.63829 11.5171 7.2086 10.2424 6.51563 8.96338C6.43413 8.81057 6.39785 8.64141 6.4103 8.47228C6.42276 8.30315 6.48353 8.13978 6.58673 7.99799C6.59679 7.98389 6.60802 7.97049 6.62032 7.95791L8.26563 6.19588C8.27503 6.17747 8.2799 6.15744 8.2799 6.13717C8.2799 6.1169 8.27503 6.09688 8.26563 6.07846L6.62032 2.76393C6.60946 2.73733 6.58993 2.7143 6.56428 2.69786C6.53862 2.68143 6.50805 2.67235 6.47657 2.67182H6.4586C5.66403 2.76695 4.93508 3.11911 4.40789 3.66254C3.8807 4.20598 3.59131 4.90353 3.59376 5.62494C3.59376 10.6649 8.15001 14.7656 13.75 14.7656C14.5517 14.7677 15.3269 14.5072 15.9307 14.0326C16.5345 13.558 16.9257 12.9018 17.0313 12.1865Z" fill="#FCFCFC"/>
</svg>
